<svg width="2099" height="1654" xmlns="http://www.w3.org/2000/svg" xmlns:xlink="http://www.w3.org/1999/xlink" xml:space="preserve" overflow="hidden"><g transform="translate(-59 -481)"><g><path d="M369.822 2087C298.074 2087 239.911 2028.84 239.911 1957.09L239.911 1437.41C239.911 1365.66 181.748 1307.5 110 1307.5 181.748 1307.5 239.911 1249.34 239.911 1177.59L239.911 657.911C239.911 586.163 298.074 528 369.822 528M1852.18 528C1923.93 528 1982.09 586.163 1982.09 657.911L1982.09 1177.59C1982.09 1249.34 2040.25 1307.5 2112 1307.5 2040.25 1307.5 1982.09 1365.66 1982.09 1437.41L1982.09 1957.09C1982.09 2028.84 1923.93 2087 1852.18 2087" stroke="#315D8E" stroke-width="91.6667" stroke-linecap="round" stroke-linejoin="miter" stroke-miterlimit="8" stroke-opacity="1" fill="none" fill-rule="evenodd"/><path d="M0 52.0002C-6.72376e-15 23.2813 23.2814-6.72374e-15 52.0004-1.34475e-14L52.0004 0C80.7194-1.34475e-14 104.001 23.2813 104.001 52.0002L104 793.001C104 821.72 80.7184 845.001 51.9994 845.001L52.0004 845C23.2814 845 0 821.719 0 793Z" stroke="#315D8E" stroke-width="34.375" stroke-linecap="butt" stroke-linejoin="miter" stroke-miterlimit="8" stroke-opacity="1" fill="#315D8E" fill-rule="evenodd" fill-opacity="1" transform="matrix(-6.12323e-17 -1 -1 6.12323e-17 1253 754)"/><path d="M0 52.0002C-6.72376e-15 23.2813 23.2814-6.72374e-15 52.0004-1.34475e-14L52.0004 0C80.7194-1.34475e-14 104.001 23.2813 104.001 52.0002L104 793.001C104 821.72 80.7184 845.001 51.9994 845.001L52.0004 845C23.2814 845 0 821.719 0 793Z" stroke="#315D8E" stroke-width="34.375" stroke-linecap="butt" stroke-linejoin="miter" stroke-miterlimit="8" stroke-opacity="1" fill="#315D8E" fill-rule="evenodd" fill-opacity="1" transform="matrix(-6.12323e-17 -1 -1 6.12323e-17 1523 1065)"/><path d="M0 52C-1.03442e-14 23.2812 23.2812-1.03442e-14 52.0001-1.03442e-14L52.0001 0C80.7189-1.03442e-14 104 23.2812 104 52L104 598C104 626.719 80.7189 650 52.0001 650 23.2812 650 0 626.719 0 598Z" stroke="#315D8E" stroke-width="34.375" stroke-linecap="butt" stroke-linejoin="miter" stroke-miterlimit="8" stroke-opacity="1" fill="#315D8E" fill-rule="evenodd" fill-opacity="1" transform="matrix(-6.12323e-17 -1 -1 6.12323e-17 1765 1377)"/><path d="M0 52C-1.03442e-14 23.2812 23.2812-1.03442e-14 52.0001-1.03442e-14L52.0001 0C80.7189-1.03442e-14 104 23.2812 104 52L104 598C104 626.719 80.7189 650 52.0001 650 23.2812 650 0 626.719 0 598Z" stroke="#315D8E" stroke-width="34.375" stroke-linecap="butt" stroke-linejoin="miter" stroke-miterlimit="8" stroke-opacity="1" fill="#315D8E" fill-rule="evenodd" fill-opacity="1" transform="matrix(-6.12323e-17 -1 -1 6.12323e-17 1782 1687)"/><path d="M0 52.0002C-6.72376e-15 23.2813 23.2814-6.72374e-15 52.0004-1.34475e-14L52.0004 0C80.7194-1.34475e-14 104.001 23.2813 104.001 52.0002L104 793.001C104 821.72 80.7184 845.001 51.9994 845.001L52.0004 845C23.2814 845 0 821.719 0 793Z" stroke="#315D8E" stroke-width="34.375" stroke-linecap="butt" stroke-linejoin="miter" stroke-miterlimit="8" stroke-opacity="1" fill="#315D8E" fill-rule="evenodd" fill-opacity="1" transform="matrix(-6.12323e-17 -1 -1 6.12323e-17 1265 1997)"/></g></g></svg>