<svg width="857" height="641" xmlns="http://www.w3.org/2000/svg" xmlns:xlink="http://www.w3.org/1999/xlink" xml:space="preserve" overflow="hidden"><g transform="translate(-1132 -1141)"><g><path d="M162.448 3.97999C290.039-8.63158 430.657 9.58378 476.525 44.6651 486.103 51.9905 491 59.7161 491 67.5004" stroke="#315D8E" stroke-width="34.375" stroke-linecap="butt" stroke-linejoin="round" stroke-miterlimit="10" stroke-opacity="1" fill="none" fill-rule="evenodd" transform="matrix(-1 0 0 1 2050 1701)"/><path d="M0 0 0.000360892 535.276" stroke="#315D8E" stroke-width="34.375" stroke-linecap="round" stroke-linejoin="round" stroke-miterlimit="10" stroke-opacity="1" fill="none" fill-rule="evenodd" transform="matrix(-1 0 0 1 1228 1173)"/><path d="M1234.06 1707.42C1353.37 1692.45 1490.35 1709.46 1540.02 1745.4 1551.89 1753.99 1558 1763.2 1558 1772.5" stroke="#315D8E" stroke-width="34.375" stroke-linecap="butt" stroke-linejoin="round" stroke-miterlimit="10" stroke-opacity="1" fill="none" fill-rule="evenodd"/><path d="M1270.17 1578.87C1367.32 1574.83 1465.03 1585.17 1488.79 1602.01" stroke="#315D8E" stroke-width="34.375" stroke-linecap="butt" stroke-linejoin="round" stroke-miterlimit="10" stroke-opacity="1" fill="none" fill-rule="evenodd"/><path d="M1265.17 1459.87C1362.65 1455.81 1460.62 1466.24 1483.99 1483.15 1484.36 1483.42 1484.71 1483.69 1485.04 1483.95" stroke="#315D8E" stroke-width="34.375" stroke-linecap="butt" stroke-linejoin="bevel" stroke-miterlimit="10" stroke-opacity="1" fill="none" fill-rule="evenodd"/><path d="M1265.17 1346.87C1362.65 1342.81 1460.62 1353.24 1484 1370.15 1484.64 1370.62 1485.23 1371.09 1485.75 1371.56" stroke="#315D8E" stroke-width="34.375" stroke-linecap="butt" stroke-linejoin="round" stroke-miterlimit="10" stroke-opacity="1" fill="none" fill-rule="evenodd"/><path d="M148.558 0.787478C249.365-3.00149 350.151 7.12634 375.956 23.6382" stroke="#315D8E" stroke-width="34.375" stroke-linecap="butt" stroke-linejoin="round" stroke-miterlimit="10" stroke-opacity="1" fill="none" fill-rule="evenodd" transform="matrix(-1 0 0 1 2001 1578)"/><path d="M148.559 0.787482C251.408-3.07828 353.785 7.53841 377.225 24.5005 377.283 24.5422 377.34 24.584 377.397 24.6257" stroke="#315D8E" stroke-width="34.375" stroke-linecap="butt" stroke-linejoin="bevel" stroke-miterlimit="10" stroke-opacity="1" fill="none" fill-rule="evenodd" transform="matrix(-1 0 0 1 1996 1459)"/><path d="M148.559 0.787483C251.408-3.07828 353.785 7.53841 377.225 24.5005 377.577 24.755 377.909 25.0101 378.222 25.2659" stroke="#315D8E" stroke-width="34.375" stroke-linecap="butt" stroke-linejoin="round" stroke-miterlimit="10" stroke-opacity="1" fill="none" fill-rule="evenodd" transform="matrix(-1 0 0 1 1996 1346)"/><path d="M0 0 0.000360892 530.079" stroke="#315D8E" stroke-width="34.375" stroke-linecap="round" stroke-linejoin="round" stroke-miterlimit="10" stroke-opacity="1" fill="none" fill-rule="evenodd" transform="matrix(-1 0 0 1 1891 1176)"/><path d="M157.037 4.53468C283.515-8.89837 425.651 8.40254 474.508 43.1774 485.409 50.9363 491 59.1824 491 67.5001" stroke="#315D8E" stroke-width="34.375" stroke-linecap="butt" stroke-linejoin="round" stroke-miterlimit="10" stroke-opacity="1" fill="none" fill-rule="evenodd" transform="matrix(-1 0 0 1 2048 1171)"/><path d="M1308 1184 1308 1287.94" stroke="#315D8E" stroke-width="34.375" stroke-linecap="round" stroke-linejoin="round" stroke-miterlimit="10" stroke-opacity="1" fill="none" fill-rule="evenodd"/><path d="M1389 1185 1389 1288.94" stroke="#315D8E" stroke-width="34.375" stroke-linecap="round" stroke-linejoin="round" stroke-miterlimit="10" stroke-opacity="1" fill="none" fill-rule="evenodd"/><path d="M1386.38 1288.46 1351.47 1253.55" stroke="#315D8E" stroke-width="34.375" stroke-linecap="round" stroke-linejoin="round" stroke-miterlimit="10" stroke-opacity="1" fill="none" fill-rule="evenodd"/><path d="M1346.87 1252.48 1309.77 1289.58" stroke="#315D8E" stroke-width="34.375" stroke-linecap="round" stroke-linejoin="round" stroke-miterlimit="10" stroke-opacity="1" fill="none" fill-rule="evenodd"/><path d="M1556 1224 1556 1763.08" stroke="#315D8E" stroke-width="34.375" stroke-linecap="butt" stroke-linejoin="miter" stroke-miterlimit="8" stroke-opacity="1" fill="none" fill-rule="evenodd"/><path d="M1231.14 1172.52C1360.6 1160.51 1500.41 1180.08 1543.41 1216.25 1551.75 1223.26 1556 1230.61 1556 1238" stroke="#315D8E" stroke-width="34.375" stroke-linecap="butt" stroke-linejoin="round" stroke-miterlimit="10" stroke-opacity="1" fill="none" fill-rule="evenodd"/><path d="M0 0 816.296 0.000360892" stroke="#315D8E" stroke-width="34.375" stroke-linecap="round" stroke-linejoin="round" stroke-miterlimit="10" stroke-opacity="1" fill="none" fill-rule="evenodd" transform="matrix(-1 0 0 1 1967.3 1760)"/><path d="M0 0 0.000360892 535.276" stroke="#315D8E" stroke-width="34.375" stroke-linecap="round" stroke-linejoin="round" stroke-miterlimit="10" stroke-opacity="1" fill="none" fill-rule="evenodd" transform="matrix(-1 0 0 1 1151 1223)"/><path d="M0 0 0.000360892 535.276" stroke="#315D8E" stroke-width="34.375" stroke-linecap="round" stroke-linejoin="round" stroke-miterlimit="10" stroke-opacity="1" fill="none" fill-rule="evenodd" transform="matrix(-1 0 0 1 1968 1222)"/><path d="M0 0 58.3069 0.000360892" stroke="#315D8E" stroke-width="34.375" stroke-linecap="round" stroke-linejoin="round" stroke-miterlimit="10" stroke-opacity="1" fill="none" fill-rule="evenodd" transform="matrix(-1 0 0 1 1209.31 1223)"/><path d="M0 0 58.3069 0.000360892" stroke="#315D8E" stroke-width="34.375" stroke-linecap="round" stroke-linejoin="round" stroke-miterlimit="10" stroke-opacity="1" fill="none" fill-rule="evenodd" transform="matrix(-1 0 0 1 1967.31 1220)"/></g></g></svg>