<?xml version="1.0" encoding="UTF-8" standalone="no"?>
<svg
   xmlns:dc="http://purl.org/dc/elements/1.1/"
   xmlns:cc="http://creativecommons.org/ns#"
   xmlns:rdf="http://www.w3.org/1999/02/22-rdf-syntax-ns#"
   xmlns:svg="http://www.w3.org/2000/svg"
   xmlns="http://www.w3.org/2000/svg"
   xmlns:sodipodi="http://sodipodi.sourceforge.net/DTD/sodipodi-0.dtd"
   xmlns:inkscape="http://www.inkscape.org/namespaces/inkscape"
   inkscape:version="1.0 (4035a4fb49, 2020-05-01)"
   sodipodi:docname="book.svg"
   id="svg6"
   viewBox="0 0 20 20"
   height="20"
   width="20"
   version="1.1">
  <metadata
     id="metadata12">
    <rdf:RDF>
      <cc:Work
         rdf:about="">
        <dc:format>image/svg+xml</dc:format>
        <dc:type
           rdf:resource="http://purl.org/dc/dcmitype/StillImage" />
      </cc:Work>
    </rdf:RDF>
  </metadata>
  <defs
     id="defs10" />
  <sodipodi:namedview
     inkscape:current-layer="svg6"
     inkscape:window-maximized="1"
     inkscape:window-y="-10"
     inkscape:window-x="0"
     inkscape:cy="10"
     inkscape:cx="10"
     inkscape:zoom="36.75"
     showgrid="false"
     id="namedview8"
     inkscape:window-height="1413"
     inkscape:window-width="2560"
     inkscape:pageshadow="2"
     inkscape:pageopacity="0"
     guidetolerance="10"
     gridtolerance="10"
     objecttolerance="10"
     borderopacity="1"
     bordercolor="#666666"
     pagecolor="#ffffff" />
  <path
     style="fill:#20619b;fill-opacity:1"
     id="path2"
     d="M14.5 18h-10c-0.276 0-0.5-0.224-0.5-0.5s0.224-0.5 0.5-0.5h10c0.276 0 0.5 0.224 0.5 0.5s-0.224 0.5-0.5 0.5z"
     fill="#000000" />
  <path
     style="fill:#20619b;fill-opacity:1"
     id="path4"
     d="M16.5 3c-0.276 0-0.5 0.224-0.5 0.5v15c0 0.276-0.224 0.5-0.5 0.5h-11c-0.827 0-1.5-0.673-1.5-1.5s0.673-1.5 1.5-1.5h9c0.827 0 1.5-0.673 1.5-1.5v-12c0-0.827-0.673-1.5-1.5-1.5h-10c-0.827 0-1.5 0.673-1.5 1.5v15c0 1.378 1.122 2.5 2.5 2.5h11c0.827 0 1.5-0.673 1.5-1.5v-15c0-0.276-0.224-0.5-0.5-0.5zM3.5 2h10c0.276 0 0.5 0.224 0.5 0.5v12c0 0.276-0.224 0.5-0.5 0.5h-9c-0.562 0-1.082 0.187-1.5 0.501v-13.001c0-0.276 0.224-0.5 0.5-0.5z"
     fill="#000000" />
</svg>
