<?xml version="1.0" ?><svg viewBox="45 0 512 512" xmlns="http://www.w3.org/2000/svg"><title/><g data-name="1" id="_1"><path stroke="#264d85" fill="#264d85" d="M160.91,411.51a15,15,0,0,1-15-15v-295A53.56,53.56,0,0,1,199.41,48H423.5a15,15,0,0,1,15,15V358a15,15,0,0,1-30,0V78H199.41a23.52,23.52,0,0,0-23.5,23.49v295A15,15,0,0,1,160.91,411.51Z"/><path stroke="#264d85" fill="#264d85" d="M423.5,450H199.41a53.5,53.5,0,1,1,0-107H423.5a15,15,0,0,1,0,30H199.41a23.5,23.5,0,1,0,0,47H423.5a15,15,0,0,1,0,30Z"/><path stroke="#264d85" fill="#264d85" d="M406.14,447.58a15,15,0,0,1-15-15V358a15,15,0,0,1,30,0v74.57A15,15,0,0,1,406.14,447.58Z"/><path stroke="#264d85" fill="#264d85" d="M334.2,298.26a15,15,0,0,1-14.41-10.88l-27.58-96.53-27.59,96.53a15,15,0,1,1-28.84-8.24l42-147a15,15,0,0,1,28.85,0l42,147a15,15,0,0,1-10.3,18.54A14.71,14.71,0,0,1,334.2,298.26Z"/><path stroke="#264d85" fill="#264d85" d="M323.57,258.24H261.64a15,15,0,0,1,0-30h61.93a15,15,0,0,1,0,30Z"/></g></svg>