<?xml version="1.0" encoding="utf-8"?>
<!-- Generator: Adobe Illustrator 23.0.3, SVG Export Plug-In . SVG Version: 6.00 Build 0)  -->
<svg version="1.1" id="Icons" xmlns="http://www.w3.org/2000/svg" xmlns:xlink="http://www.w3.org/1999/xlink" x="0px" y="0px"
	 viewBox="0 0 32 32" style="enable-background:new 0 0 32 32;" xml:space="preserve">
<style type="text/css">
	.st0{fill:none;stroke:#20619b;stroke-width:1.5;stroke-linecap:round;stroke-linejoin:round;stroke-miterlimit:10;}
	.st1{fill:none;stroke:#20619b;stroke-width:1.5;}
	.st2{fill:none;stroke:#20619b;stroke-width:1.5;stroke-miterlimit:10;}
</style>
<circle class="st0" cx="6" cy="26" r="4"/>
<path class="st0" d="M2,7.5c1.2-0.3,2.5-0.4,3.8-0.4c10.5,0,19.1,8.5,19.1,19.1c0,1.3-0.1,2.6-0.4,3.8h5.1c0.2-1.2,0.3-2.5,0.3-3.8
	C30,12.8,19.2,2,5.8,2C4.5,2,3.2,2.1,2,2.3V7.5z"/>
<path class="st0" d="M2,18c1.2-0.6,2.5-0.9,3.9-0.9c5,0,9,4,9,9c0,1.4-0.3,2.7-0.9,3.9h5.5c0.3-1.2,0.5-2.5,0.5-3.9
	C20,18.3,13.7,12,5.9,12c-1.3,0-2.6,0.2-3.9,0.5V18z"/>
</svg>
