<?xml version="1.0" ?><svg viewBox="0 0 512 512" xmlns="http://www.w3.org/2000/svg"><title/><g data-name="1" id="_1"><path stroke="#264d85" fill="#264d85" d="M373.43,444.44a15,15,0,0,1-11.29-5.12l-47.93-54.77A236,236,0,0,1,255.13,392C202,392,151.85,374.7,114,343.35c-38.63-32-59.91-74.85-59.91-120.59S75.41,134.2,114,102.18C151.85,70.83,202,53.56,255.13,53.56s103.28,17.27,141.1,48.62c38.63,32,59.9,74.85,59.9,120.58,0,48.82-24.57,94.6-67.7,126.72v80a15,15,0,0,1-15,15Zm-54.17-91.88a15,15,0,0,1,11.29,5.12l27.88,31.85V341.77A15,15,0,0,1,365,329.38c38.88-26.59,61.17-65.45,61.17-106.62,0-76.75-76.71-139.2-171-139.2s-171,62.45-171,139.2S160.84,362,255.13,362a205.07,205.07,0,0,0,59.76-8.76A14.93,14.93,0,0,1,319.26,352.56Z"/><path stroke="#264d85" fill="#264d85" d="M201.49,264c-.49,0-1,0-1.47-.07s-1-.13-1.46-.22-1-.22-1.42-.36-.94-.31-1.39-.5-.89-.4-1.32-.63a14.6,14.6,0,0,1-1.27-.75c-.4-.27-.8-.56-1.18-.87s-.75-.65-1.1-1-.68-.72-1-1.1-.6-.78-.87-1.18a14.6,14.6,0,0,1-.75-1.27q-.35-.65-.63-1.32a14.17,14.17,0,0,1-.49-1.38,12,12,0,0,1-.36-1.43,12.1,12.1,0,0,1-.22-1.45,14.68,14.68,0,0,1-.08-1.48,14.32,14.32,0,0,1,.08-1.47,15.21,15.21,0,0,1,.58-2.89,14.17,14.17,0,0,1,.49-1.38q.29-.67.63-1.32a14.6,14.6,0,0,1,.75-1.27c.27-.4.56-.8.87-1.18s.65-.75,1-1.1.72-.68,1.1-1,.78-.6,1.18-.87a12.45,12.45,0,0,1,1.27-.75q.65-.34,1.32-.63a13.53,13.53,0,0,1,1.39-.5c.46-.14.94-.26,1.42-.36s1-.17,1.46-.22a14.54,14.54,0,0,1,2.95,0c.48.05,1,.13,1.45.22s1,.22,1.43.36a14.25,14.25,0,0,1,1.38.5c.45.19.9.4,1.33.63a13.48,13.48,0,0,1,1.26.75,14.34,14.34,0,0,1,1.18.87c.38.31.75.65,1.1,1s.68.72,1,1.1.6.78.87,1.18a14.6,14.6,0,0,1,.75,1.27q.34.65.63,1.32c.19.45.35.92.5,1.38s.26,1,.36,1.43a14.46,14.46,0,0,1,.29,2.93,14.66,14.66,0,0,1-.07,1.48,14.51,14.51,0,0,1-.22,1.45c-.1.48-.22,1-.36,1.43s-.31.93-.5,1.38-.4.89-.63,1.32a14.6,14.6,0,0,1-.75,1.27c-.27.4-.56.8-.87,1.18s-.65.75-1,1.1-.72.68-1.1,1a14.34,14.34,0,0,1-1.18.87q-.62.4-1.26.75c-.43.23-.88.44-1.33.63s-.92.35-1.38.5-.95.26-1.43.36-1,.17-1.45.22S202,264,201.49,264Z"/><path stroke="#264d85" fill="#264d85" d="M312.5,264a14.46,14.46,0,0,1-1.47-.07c-.49-.05-1-.13-1.46-.22s-1-.22-1.42-.36-.93-.31-1.38-.5-.9-.4-1.33-.63A15.58,15.58,0,0,1,303,260.6c-.38-.31-.75-.65-1.09-1a14.67,14.67,0,0,1-1-1.1c-.31-.38-.61-.78-.88-1.18a14.6,14.6,0,0,1-.75-1.27q-.34-.65-.63-1.32c-.18-.45-.35-.92-.49-1.38a12,12,0,0,1-.36-1.43,15.49,15.49,0,0,1-.3-2.93,14.68,14.68,0,0,1,.08-1.48,14.51,14.51,0,0,1,.22-1.45,12,12,0,0,1,.36-1.43c.14-.46.31-.93.49-1.38s.4-.89.63-1.32a14.6,14.6,0,0,1,.75-1.27c.27-.4.57-.8.88-1.18a14.67,14.67,0,0,1,1-1.1c.34-.34.71-.68,1.09-1a15.58,15.58,0,0,1,2.45-1.62c.43-.23.87-.44,1.33-.63s.91-.35,1.38-.5.94-.26,1.42-.36,1-.17,1.46-.22a16.15,16.15,0,0,1,3,0c.48.05,1,.13,1.45.22s1,.22,1.43.36.93.31,1.38.5.9.4,1.33.63.85.48,1.26.75a12.82,12.82,0,0,1,1.18.87c.38.31.75.65,1.1,1s.68.72,1,1.1.6.78.87,1.18a14.69,14.69,0,0,1,.76,1.27c.22.43.44.87.62,1.32a14.25,14.25,0,0,1,.5,1.38c.14.47.26,1,.36,1.43s.17,1,.22,1.45a14.66,14.66,0,0,1,.07,1.48,14.33,14.33,0,0,1-.07,1.47c-.05.49-.13,1-.22,1.46s-.22,1-.36,1.43a14.25,14.25,0,0,1-.5,1.38c-.18.45-.4.89-.62,1.32a14.69,14.69,0,0,1-.76,1.27c-.27.4-.56.8-.87,1.18s-.65.75-1,1.1-.72.68-1.1,1a12.82,12.82,0,0,1-1.18.87q-.61.4-1.26.75c-.43.23-.88.44-1.33.63s-.92.35-1.38.5-.95.26-1.43.36-1,.17-1.45.22A14.66,14.66,0,0,1,312.5,264Z"/><path stroke="#264d85" fill="#264d85" d="M257,264a15.11,15.11,0,0,1-10.61-4.39,14.67,14.67,0,0,1-1-1.1c-.31-.38-.6-.78-.88-1.18s-.52-.83-.75-1.27a13.2,13.2,0,0,1-.62-1.32,14.25,14.25,0,0,1-.5-1.38c-.14-.47-.26-1-.36-1.43a14.51,14.51,0,0,1-.22-1.45,15.68,15.68,0,0,1,0-3,14.51,14.51,0,0,1,.22-1.45c.1-.48.22-1,.36-1.43a14.25,14.25,0,0,1,.5-1.38,13.2,13.2,0,0,1,.62-1.32c.23-.44.49-.86.75-1.27s.57-.8.88-1.18a14.67,14.67,0,0,1,1-1.1,15.12,15.12,0,0,1,12.08-4.32c.49.05,1,.13,1.46.22s.95.22,1.42.36.93.31,1.38.5.9.4,1.33.63a15.58,15.58,0,0,1,2.45,1.62c.38.31.75.65,1.09,1a14.67,14.67,0,0,1,1,1.1c.31.38.61.78.88,1.18a14.6,14.6,0,0,1,.75,1.27q.34.65.63,1.32c.18.45.35.92.49,1.38a12,12,0,0,1,.36,1.43,14.51,14.51,0,0,1,.22,1.45,13.73,13.73,0,0,1,0,3,14.51,14.51,0,0,1-.22,1.45,12,12,0,0,1-.36,1.43c-.14.46-.31.93-.49,1.38s-.4.89-.63,1.32a14.6,14.6,0,0,1-.75,1.27c-.27.4-.57.8-.88,1.18a14.67,14.67,0,0,1-1,1.1c-.34.34-.71.67-1.09,1a15.58,15.58,0,0,1-2.45,1.62c-.43.23-.88.44-1.33.63s-.91.35-1.38.5-1,.26-1.42.36-1,.17-1.46.22A14.46,14.46,0,0,1,257,264Z"/></g></svg>