<svg width="1700" height="1379" xmlns="http://www.w3.org/2000/svg" xmlns:xlink="http://www.w3.org/1999/xlink" xml:space="preserve" overflow="hidden"><g transform="translate(-2530 -678)"><g><path d="M2536.5 727C2536.5 703.528 2555.53 684.5 2579 684.5L2579 684.5C2602.47 684.5 2621.5 703.528 2621.5 727L2621.5 2006C2621.5 2029.47 2602.47 2048.5 2579 2048.5 2555.53 2048.5 2536.5 2029.47 2536.5 2006Z" stroke="#315D8E" stroke-width="6.875" stroke-linecap="butt" stroke-linejoin="miter" stroke-miterlimit="8" stroke-opacity="1" fill="#315D8E" fill-rule="evenodd" fill-opacity="1"/><path d="M4180 1964.5C4203.47 1964.5 4222.5 1983.53 4222.5 2007L4222.5 2007C4222.5 2030.47 4203.47 2049.5 4180 2049.5L2579 2049.5C2555.53 2049.5 2536.5 2030.47 2536.5 2007L2536.5 2007C2536.5 1983.53 2555.53 1964.5 2579 1964.5Z" stroke="#315D8E" stroke-width="6.875" stroke-linecap="butt" stroke-linejoin="miter" stroke-miterlimit="8" stroke-opacity="1" fill="#315D8E" fill-rule="evenodd" fill-opacity="1"/><path d="M2818.5 1154.5C2818.5 1116.39 2849.62 1085.5 2888 1085.5 2926.38 1085.5 2957.5 1116.39 2957.5 1154.5 2957.5 1192.61 2926.38 1223.5 2888 1223.5 2849.62 1223.5 2818.5 1192.61 2818.5 1154.5Z" stroke="#315D8E" stroke-width="6.875" stroke-linecap="butt" stroke-linejoin="miter" stroke-miterlimit="8" stroke-opacity="1" fill="#315D8E" fill-rule="evenodd" fill-opacity="1"/><path d="M2990.5 1362C2990.5 1323.62 3021.39 1292.5 3059.5 1292.5 3097.61 1292.5 3128.5 1323.62 3128.5 1362 3128.5 1400.38 3097.61 1431.5 3059.5 1431.5 3021.39 1431.5 2990.5 1400.38 2990.5 1362Z" stroke="#315D8E" stroke-width="6.875" stroke-linecap="butt" stroke-linejoin="miter" stroke-miterlimit="8" stroke-opacity="1" fill="#315D8E" fill-rule="evenodd" fill-opacity="1"/><path d="M3202.5 1538C3202.5 1499.62 3233.39 1468.5 3271.5 1468.5 3309.61 1468.5 3340.5 1499.62 3340.5 1538 3340.5 1576.38 3309.61 1607.5 3271.5 1607.5 3233.39 1607.5 3202.5 1576.38 3202.5 1538Z" stroke="#315D8E" stroke-width="6.875" stroke-linecap="butt" stroke-linejoin="miter" stroke-miterlimit="8" stroke-opacity="1" fill="#315D8E" fill-rule="evenodd" fill-opacity="1"/><path d="M3430.5 1670C3430.5 1631.62 3461.62 1600.5 3500 1600.5 3538.38 1600.5 3569.5 1631.62 3569.5 1670 3569.5 1708.38 3538.38 1739.5 3500 1739.5 3461.62 1739.5 3430.5 1708.38 3430.5 1670Z" stroke="#315D8E" stroke-width="6.875" stroke-linecap="butt" stroke-linejoin="miter" stroke-miterlimit="8" stroke-opacity="1" fill="#315D8E" fill-rule="evenodd" fill-opacity="1"/><path d="M3673.5 1761C3673.5 1722.62 3704.39 1691.5 3742.5 1691.5 3780.61 1691.5 3811.5 1722.62 3811.5 1761 3811.5 1799.38 3780.61 1830.5 3742.5 1830.5 3704.39 1830.5 3673.5 1799.38 3673.5 1761Z" stroke="#315D8E" stroke-width="6.875" stroke-linecap="butt" stroke-linejoin="miter" stroke-miterlimit="8" stroke-opacity="1" fill="#315D8E" fill-rule="evenodd" fill-opacity="1"/><path d="M3932.5 1821.5C3932.5 1783.39 3963.62 1752.5 4002 1752.5 4040.38 1752.5 4071.5 1783.39 4071.5 1821.5 4071.5 1859.61 4040.38 1890.5 4002 1890.5 3963.62 1890.5 3932.5 1859.61 3932.5 1821.5Z" stroke="#315D8E" stroke-width="6.875" stroke-linecap="butt" stroke-linejoin="miter" stroke-miterlimit="8" stroke-opacity="1" fill="#315D8E" fill-rule="evenodd" fill-opacity="1"/><path d="M2693.5 922.5C2693.5 884.392 2724.39 853.5 2762.5 853.5 2800.61 853.5 2831.5 884.392 2831.5 922.5 2831.5 960.608 2800.61 991.5 2762.5 991.5 2724.39 991.5 2693.5 960.608 2693.5 922.5Z" stroke="#315D8E" stroke-width="6.875" stroke-linecap="butt" stroke-linejoin="miter" stroke-miterlimit="8" stroke-opacity="1" fill="#315D8E" fill-rule="evenodd" fill-opacity="1"/></g></g></svg>