<svg width="1700" height="1700" xmlns="http://www.w3.org/2000/svg" xmlns:xlink="http://www.w3.org/1999/xlink" xml:space="preserve" overflow="hidden"><g transform="translate(-2530 -357)"><g><path d="M2536.5 406C2536.5 382.528 2555.53 363.5 2579 363.5L2579 363.5C2602.47 363.5 2621.5 382.528 2621.5 406L2621.5 2007C2621.5 2030.47 2602.47 2049.5 2579 2049.5L2579 2049.5C2555.53 2049.5 2536.5 2030.47 2536.5 2007Z" stroke="#346295" stroke-width="6.875" stroke-linecap="butt" stroke-linejoin="miter" stroke-miterlimit="8" stroke-opacity="1" fill="#315D8E" fill-rule="evenodd" fill-opacity="1"/><path d="M4180 1964.5C4203.47 1964.5 4222.5 1983.53 4222.5 2007L4222.5 2007C4222.5 2030.47 4203.47 2049.5 4180 2049.5L2579 2049.5C2555.53 2049.5 2536.5 2030.47 2536.5 2007L2536.5 2007C2536.5 1983.53 2555.53 1964.5 2579 1964.5Z" stroke="#346295" stroke-width="6.875" stroke-linecap="butt" stroke-linejoin="miter" stroke-miterlimit="8" stroke-opacity="1" fill="#315D8E" fill-rule="evenodd" fill-opacity="1"/><path d="M2693.5 663.5C2693.5 625.392 2724.39 594.5 2762.5 594.5 2800.61 594.5 2831.5 625.392 2831.5 663.5 2831.5 701.608 2800.61 732.5 2762.5 732.5 2724.39 732.5 2693.5 701.608 2693.5 663.5Z" stroke="#346295" stroke-width="6.875" stroke-linecap="butt" stroke-linejoin="miter" stroke-miterlimit="8" stroke-opacity="1" fill="#315D8E" fill-rule="evenodd" fill-opacity="1"/><path d="M2895.5 1145.5C2895.5 1107.39 2926.62 1076.5 2965 1076.5 3003.38 1076.5 3034.5 1107.39 3034.5 1145.5 3034.5 1183.61 3003.38 1214.5 2965 1214.5 2926.62 1214.5 2895.5 1183.61 2895.5 1145.5Z" stroke="#346295" stroke-width="6.875" stroke-linecap="butt" stroke-linejoin="miter" stroke-miterlimit="8" stroke-opacity="1" fill="#315D8E" fill-rule="evenodd" fill-opacity="1"/><path d="M3067.5 1353C3067.5 1314.62 3098.39 1283.5 3136.5 1283.5 3174.61 1283.5 3205.5 1314.62 3205.5 1353 3205.5 1391.38 3174.61 1422.5 3136.5 1422.5 3098.39 1422.5 3067.5 1391.38 3067.5 1353Z" stroke="#346295" stroke-width="6.875" stroke-linecap="butt" stroke-linejoin="miter" stroke-miterlimit="8" stroke-opacity="1" fill="#315D8E" fill-rule="evenodd" fill-opacity="1"/><path d="M3279.5 1529C3279.5 1490.62 3310.39 1459.5 3348.5 1459.5 3386.61 1459.5 3417.5 1490.62 3417.5 1529 3417.5 1567.38 3386.61 1598.5 3348.5 1598.5 3310.39 1598.5 3279.5 1567.38 3279.5 1529Z" stroke="#346295" stroke-width="6.875" stroke-linecap="butt" stroke-linejoin="miter" stroke-miterlimit="8" stroke-opacity="1" fill="#315D8E" fill-rule="evenodd" fill-opacity="1"/><path d="M3507.5 1661C3507.5 1622.62 3538.39 1591.5 3576.5 1591.5 3614.61 1591.5 3645.5 1622.62 3645.5 1661 3645.5 1699.38 3614.61 1730.5 3576.5 1730.5 3538.39 1730.5 3507.5 1699.38 3507.5 1661Z" stroke="#346295" stroke-width="6.875" stroke-linecap="butt" stroke-linejoin="miter" stroke-miterlimit="8" stroke-opacity="1" fill="#315D8E" fill-rule="evenodd" fill-opacity="1"/><path d="M3750.5 1752C3750.5 1713.62 3781.39 1682.5 3819.5 1682.5 3857.61 1682.5 3888.5 1713.62 3888.5 1752 3888.5 1790.38 3857.61 1821.5 3819.5 1821.5 3781.39 1821.5 3750.5 1790.38 3750.5 1752Z" stroke="#346295" stroke-width="6.875" stroke-linecap="butt" stroke-linejoin="miter" stroke-miterlimit="8" stroke-opacity="1" fill="#315D8E" fill-rule="evenodd" fill-opacity="1"/><path d="M4009.5 1812C4009.5 1773.62 4040.39 1742.5 4078.5 1742.5 4116.61 1742.5 4147.5 1773.62 4147.5 1812 4147.5 1850.38 4116.61 1881.5 4078.5 1881.5 4040.39 1881.5 4009.5 1850.38 4009.5 1812Z" stroke="#346295" stroke-width="6.875" stroke-linecap="butt" stroke-linejoin="miter" stroke-miterlimit="8" stroke-opacity="1" fill="#315D8E" fill-rule="evenodd" fill-opacity="1"/><path d="M2770.5 913.5C2770.5 875.392 2801.39 844.5 2839.5 844.5 2877.61 844.5 2908.5 875.392 2908.5 913.5 2908.5 951.608 2877.61 982.5 2839.5 982.5 2801.39 982.5 2770.5 951.608 2770.5 913.5Z" stroke="#346295" stroke-width="6.875" stroke-linecap="butt" stroke-linejoin="miter" stroke-miterlimit="8" stroke-opacity="1" fill="#315D8E" fill-rule="evenodd" fill-opacity="1"/></g></g></svg>