<?xml version="1.0" ?><svg viewBox="0 0 512 512" xmlns="http://www.w3.org/2000/svg"><title/><g data-name="1" id="_1"><path stroke="#264d85" fill="#264d85" d="M255.13,411.93a112,112,0,1,1,112-112A112.09,112.09,0,0,1,255.13,411.93Zm0-193.93a82,82,0,1,0,82,82A82.06,82.06,0,0,0,255.13,218Z"/><path stroke="#264d85" fill="#264d85" d="M137,398a14.46,14.46,0,0,1-1.47-.07c-.49-.05-1-.13-1.46-.22s-1-.22-1.43-.36a14.25,14.25,0,0,1-1.38-.5,14.49,14.49,0,0,1-1.32-.62,14.69,14.69,0,0,1-1.27-.76c-.4-.27-.8-.56-1.18-.87s-.75-.65-1.1-1-.68-.72-1-1.1-.6-.78-.87-1.18a14.6,14.6,0,0,1-.75-1.27q-.34-.65-.63-1.32c-.19-.45-.35-.92-.5-1.39s-.26-.94-.36-1.42-.17-1-.22-1.46A14.33,14.33,0,0,1,122,383a14.66,14.66,0,0,1,.07-1.48c.05-.48.13-1,.22-1.45s.22-1,.36-1.43.31-.93.5-1.38.4-.89.63-1.32a14.6,14.6,0,0,1,.75-1.27c.27-.4.56-.8.87-1.18s.65-.75,1-1.1.72-.68,1.1-1,.78-.6,1.18-.87a16.67,16.67,0,0,1,2.59-1.38c.45-.19.92-.35,1.38-.5s1-.26,1.43-.36,1-.17,1.46-.22a16.15,16.15,0,0,1,2.95,0c.48.05,1,.13,1.45.22s1,.22,1.42.36.94.31,1.39.5.89.4,1.32.63a15.58,15.58,0,0,1,2.45,1.62c.38.31.75.65,1.09,1s.68.72,1,1.1.6.78.87,1.18a14.6,14.6,0,0,1,.75,1.27q.34.65.63,1.32c.19.45.35.92.5,1.38s.26.95.36,1.43.17,1,.22,1.45A14.66,14.66,0,0,1,152,383a14.33,14.33,0,0,1-.07,1.47c-.05.49-.13,1-.22,1.46s-.22,1-.36,1.42-.31.94-.5,1.39-.4.89-.63,1.32a14.6,14.6,0,0,1-.75,1.27c-.27.4-.57.8-.87,1.18s-.65.75-1,1.1-.71.68-1.09,1a16.64,16.64,0,0,1-2.45,1.63c-.43.22-.87.44-1.32.62a13.53,13.53,0,0,1-1.39.5c-.46.14-.94.26-1.42.36s-1,.17-1.45.22A14.66,14.66,0,0,1,137,398Z"/><path stroke="#264d85" fill="#264d85" d="M441.13,461.82h-372a15,15,0,0,1-15-15V179.18a15,15,0,0,1,15-15h80.61l24-47.9A15,15,0,0,1,187.13,108h136a15,15,0,0,1,13.42,8.28l24,47.9h80.6a15,15,0,0,1,15,15V446.82A15,15,0,0,1,441.13,461.82Zm-357-30h342V194.18H351.27a15,15,0,0,1-13.41-8.28l-24-47.9H196.4l-24,47.9A15,15,0,0,1,159,194.18H84.13Z"/></g></svg>