<?xml version="1.0" encoding="UTF-8" standalone="no"?>
<svg
   xmlns:dc="http://purl.org/dc/elements/1.1/"
   xmlns:cc="http://creativecommons.org/ns#"
   xmlns:rdf="http://www.w3.org/1999/02/22-rdf-syntax-ns#"
   xmlns:svg="http://www.w3.org/2000/svg"
   xmlns="http://www.w3.org/2000/svg"
   xmlns:sodipodi="http://sodipodi.sourceforge.net/DTD/sodipodi-0.dtd"
   xmlns:inkscape="http://www.inkscape.org/namespaces/inkscape"
   inkscape:version="1.0 (4035a4fb49, 2020-05-01)"
   sodipodi:docname="chart-bars.svg"
   id="svg10"
   viewBox="0 0 20 20"
   height="20"
   width="20"
   version="1.1">
  <metadata
     id="metadata16">
    <rdf:RDF>
      <cc:Work
         rdf:about="">
        <dc:format>image/svg+xml</dc:format>
        <dc:type
           rdf:resource="http://purl.org/dc/dcmitype/StillImage" />
      </cc:Work>
    </rdf:RDF>
  </metadata>
  <defs
     id="defs14" />
  <sodipodi:namedview
     inkscape:current-layer="svg10"
     inkscape:window-maximized="1"
     inkscape:window-y="-10"
     inkscape:window-x="0"
     inkscape:cy="10"
     inkscape:cx="10"
     inkscape:zoom="36.75"
     showgrid="false"
     id="namedview12"
     inkscape:window-height="1413"
     inkscape:window-width="2560"
     inkscape:pageshadow="2"
     inkscape:pageopacity="0"
     guidetolerance="10"
     gridtolerance="10"
     objecttolerance="10"
     borderopacity="1"
     bordercolor="#666666"
     pagecolor="#ffffff" />
  <path
     style="fill:#20619b;fill-opacity:1"
     id="path2"
     d="M17.5 20h-16c-0.827 0-1.5-0.673-1.5-1.5v-16c0-0.827 0.673-1.5 1.5-1.5h16c0.827 0 1.5 0.673 1.5 1.5v16c0 0.827-0.673 1.5-1.5 1.5zM1.5 2c-0.276 0-0.5 0.224-0.5 0.5v16c0 0.276 0.224 0.5 0.5 0.5h16c0.276 0 0.5-0.224 0.5-0.5v-16c0-0.276-0.224-0.5-0.5-0.5h-16z"
     fill="#000000" />
  <path
     style="fill:#20619b;fill-opacity:1"
     id="path4"
     d="M6.5 17h-2c-0.276 0-0.5-0.224-0.5-0.5v-9c0-0.276 0.224-0.5 0.5-0.5h2c0.276 0 0.5 0.224 0.5 0.5v9c0 0.276-0.224 0.5-0.5 0.5zM5 16h1v-8h-1v8z"
     fill="#000000" />
  <path
     style="fill:#20619b;fill-opacity:1"
     id="path6"
     d="M10.5 17h-2c-0.276 0-0.5-0.224-0.5-0.5v-12c0-0.276 0.224-0.5 0.5-0.5h2c0.276 0 0.5 0.224 0.5 0.5v12c0 0.276-0.224 0.5-0.5 0.5zM9 16h1v-11h-1v11z"
     fill="#000000" />
  <path
     style="fill:#20619b;fill-opacity:1"
     id="path8"
     d="M14.5 17h-2c-0.276 0-0.5-0.224-0.5-0.5v-5c0-0.276 0.224-0.5 0.5-0.5h2c0.276 0 0.5 0.224 0.5 0.5v5c0 0.276-0.224 0.5-0.5 0.5zM13 16h1v-4h-1v4z"
     fill="#000000" />
</svg>
