<?xml version="1.0" encoding="UTF-8" standalone="no"?>
<svg
   xmlns:dc="http://purl.org/dc/elements/1.1/"
   xmlns:cc="http://creativecommons.org/ns#"
   xmlns:rdf="http://www.w3.org/1999/02/22-rdf-syntax-ns#"
   xmlns:svg="http://www.w3.org/2000/svg"
   xmlns="http://www.w3.org/2000/svg"
   xmlns:sodipodi="http://sodipodi.sourceforge.net/DTD/sodipodi-0.dtd"
   xmlns:inkscape="http://www.inkscape.org/namespaces/inkscape"
   inkscape:version="1.0 (4035a4fb49, 2020-05-01)"
   height="59"
   width="59"
   sodipodi:docname="globe_with_meridians.svg"
   id="svg9"
   version="1.1"
   image-rendering="auto"
   stroke-dashoffset="0"
   font-size="12px"
   stroke-linejoin="miter"
   font-style="normal"
   font-family="Dialog"
   stroke-width="1"
   font-weight="normal"
   stroke-dasharray="none"
   fill="#000000"
   stroke-opacity="1"
   shape-rendering="auto"
   stroke-miterlimit="10"
   stroke-linecap="square"
   stroke="#000000"
   text-rendering="auto"
   color-interpolation="auto"
   color-rendering="auto"
   fill-opacity="1">
  <metadata
     id="metadata13">
    <rdf:RDF>
      <cc:Work
         rdf:about="">
        <dc:format>image/svg+xml</dc:format>
        <dc:type
           rdf:resource="http://purl.org/dc/dcmitype/StillImage" />
        <dc:title></dc:title>
      </cc:Work>
    </rdf:RDF>
  </metadata>
  <sodipodi:namedview
     inkscape:current-layer="g5"
     inkscape:window-maximized="0"
     inkscape:window-y="1228"
     inkscape:window-x="0"
     inkscape:cy="40.572902"
     inkscape:cx="47.493005"
     inkscape:zoom="10.272205"
     showgrid="false"
     id="namedview11"
     inkscape:window-height="1024"
     inkscape:window-width="1920"
     inkscape:pageshadow="2"
     inkscape:pageopacity="0"
     guidetolerance="10"
     gridtolerance="10"
     objecttolerance="10"
     borderopacity="1"
     bordercolor="#666666"
     pagecolor="#ffffff" />
  <!--Unicode Character 'GLOBE WITH MERIDIANS' (U+1F310)-->
  <defs
     id="genericDefs" />
  <g
     transform="matrix(0.22335287,0,0,0.22335287,4.408697,-25.712111)"
     id="g7">
    <g
       style="stroke-width:7.26653;stroke-miterlimit:10;stroke-dasharray:none"
       id="g5">
      <path
         style="fill:#346295;fill-opacity:1;stroke:#346295;stroke-width:9.19265;stroke-miterlimit:10;stroke-dasharray:none;stroke-opacity:1"
         id="path3"
         stroke="none"
         d="m 240.61405,247.94207 q 0,52.70007 -37.28771,89.98778 -37.28788,37.28788 -89.98796,37.28788 -52.700072,0 -89.987777,-37.28788 -37.287882,-37.28771 -37.287882,-89.98778 0,-52.70009 37.287882,-89.98798 37.287705,-37.2877 89.987777,-37.2877 52.70008,0 89.98796,37.2877 37.28771,37.28789 37.28771,89.98798 z M 194.37728,159.4457 q -23.24276,-21.25407 -53.57016,-28.33881 14.54223,22.62131 24.36136,48.10127 16.158,-8.32763 29.2088,-19.76246 z m 39.02783,84.89181 q -1.36723,-46.36113 -33.68332,-79.79583 -14.16932,12.55352 -31.94319,21.5026 10.81348,30.82458 11.5592,58.29323 z m -74.94847,-62.02196 q -10.93777,-28.8359 -27.71719,-53.19734 -7.3333,-1.11861 -13.79652,-1.24288 v 65.00507 q 20.0111,-0.87008 41.51371,-10.56485 z m -48.847,10.56485 v -65.00507 q -6.33894,0.12427 -13.672142,1.24288 -16.655249,24.36144 -27.717272,53.19734 21.502599,9.69477 41.389414,10.56485 z m 62.39487,51.45711 q -0.74571,-25.7286 -10.93775,-55.06157 -22.62122,10.06768 -44.12383,10.93774 v 44.12383 z m 61.4006,7.33329 H 179.3378 q -0.74572,27.34438 -11.5592,58.16895 17.77387,9.07335 31.94319,21.50261 32.31609,-33.31043 33.68332,-79.67156 z M 85.86973,131.10689 q -30.327398,7.08474 -53.570057,28.33881 13.050706,11.43483 29.208706,19.76246 9.819141,-25.3557 24.361351,-48.10127 z m 23.73991,113.23062 V 200.21368 Q 88.231312,199.34362 65.610013,189.27594 55.41806,218.60891 54.672261,244.33751 Z m 62.39487,7.33329 h -55.06158 v 43.99964 q 21.50261,0.86998 44.12383,10.93776 10.19204,-29.33316 10.93775,-54.9374 z m 22.37277,84.76763 q -13.0508,-11.43502 -29.2088,-19.76256 -9.81913,25.3557 -24.36136,48.10119 30.3274,-7.08466 53.57016,-28.33863 z M 58.898255,186.04428 Q 41.124385,176.97094 26.955067,164.54168 -5.3610198,197.8521 -6.7282611,244.33751 H 47.339061 q 0.745712,-27.46865 11.559194,-58.29323 z M 109.60964,295.67044 V 251.6708 H 54.672261 q 0.745799,25.60424 10.937752,54.9374 22.621299,-10.06778 43.999627,-10.93776 z m 48.847,17.89814 q -21.50261,-9.69487 -41.51371,-10.56494 v 65.00507 q 6.46322,-0.12426 13.79652,-1.24297 16.65516,-24.36127 27.71719,-53.19716 z m -48.847,54.44013 v -65.00507 q -19.886815,0.87007 -41.389414,10.56494 10.937752,28.83589 27.717272,53.19716 7.333202,1.11871 13.672142,1.24297 z M 58.898255,309.83975 Q 48.084773,279.01518 47.339061,251.6708 H -6.7282611 q 1.3672413,46.23687 33.6833281,79.67156 14.169318,-12.42926 31.943188,-21.50261 z m 26.971475,54.93731 q -14.54221,-22.74549 -24.361351,-48.10119 -16.158,8.32754 -29.208706,19.76256 23.242659,21.25397 53.570057,28.33863 z" />
    </g>
  </g>
</svg>
