<svg width="1700" height="1700" xmlns="http://www.w3.org/2000/svg" xmlns:xlink="http://www.w3.org/1999/xlink" xml:space="preserve" overflow="hidden"><g transform="translate(-288 -362)"><g><path d="M453.5 1327.83C453.5 1303.35 473.349 1283.5 497.834 1283.5L675.166 1283.5C699.651 1283.5 719.5 1303.35 719.5 1327.83L719.5 1857.17C719.5 1881.65 699.651 1901.5 675.166 1901.5L497.834 1901.5C473.349 1901.5 453.5 1881.65 453.5 1857.17Z" stroke="#346295" stroke-width="6.875" stroke-linecap="butt" stroke-linejoin="miter" stroke-miterlimit="8" stroke-opacity="1" fill="#315D8E" fill-rule="evenodd" fill-opacity="1"/><path d="M825.5 866.834C825.5 842.349 845.349 822.5 869.834 822.5L1047.17 822.5C1071.65 822.5 1091.5 842.349 1091.5 866.834L1091.5 1857.17C1091.5 1881.65 1071.65 1901.5 1047.17 1901.5L869.834 1901.5C845.349 1901.5 825.5 1881.65 825.5 1857.17Z" stroke="#346295" stroke-width="6.875" stroke-linecap="butt" stroke-linejoin="miter" stroke-miterlimit="8" stroke-opacity="1" fill="#315D8E" fill-rule="evenodd" fill-opacity="1"/><path d="M1196.5 540.833C1196.5 516.349 1216.35 496.5 1240.83 496.5L1418.17 496.5C1442.65 496.5 1462.5 516.349 1462.5 540.833L1462.5 1857.17C1462.5 1881.65 1442.65 1901.5 1418.17 1901.5L1240.83 1901.5C1216.35 1901.5 1196.5 1881.65 1196.5 1857.17Z" stroke="#346295" stroke-width="6.875" stroke-linecap="butt" stroke-linejoin="miter" stroke-miterlimit="8" stroke-opacity="1" fill="#315D8E" fill-rule="evenodd" fill-opacity="1"/><path d="M1568.5 1101.83C1568.5 1077.35 1588.35 1057.5 1612.83 1057.5L1790.17 1057.5C1814.65 1057.5 1834.5 1077.35 1834.5 1101.83L1834.5 1857.17C1834.5 1881.65 1814.65 1901.5 1790.17 1901.5L1612.83 1901.5C1588.35 1901.5 1568.5 1881.65 1568.5 1857.17Z" stroke="#346295" stroke-width="6.875" stroke-linecap="butt" stroke-linejoin="miter" stroke-miterlimit="8" stroke-opacity="1" fill="#315D8E" fill-rule="evenodd" fill-opacity="1"/><path d="M293.5 412C293.5 388.528 312.528 369.5 336.001 369.5L336.001 369.5C359.474 369.5 378.502 388.528 378.502 412L378.5 2013C378.5 2036.47 359.472 2055.5 335.999 2055.5L336.001 2055.5C312.528 2055.5 293.5 2036.47 293.5 2013Z" stroke="#346295" stroke-width="6.875" stroke-linecap="butt" stroke-linejoin="miter" stroke-miterlimit="8" stroke-opacity="1" fill="#315D8E" fill-rule="evenodd" fill-opacity="1"/><path d="M1937 1970.5C1960.47 1970.5 1979.5 1989.53 1979.5 2013L1979.5 2013C1979.5 2036.47 1960.47 2055.5 1937 2055.5L335.998 2055.5C312.526 2055.5 293.498 2036.47 293.498 2013L293.5 2013C293.5 1989.53 312.528 1970.5 336 1970.5Z" stroke="#346295" stroke-width="6.875" stroke-linecap="butt" stroke-linejoin="miter" stroke-miterlimit="8" stroke-opacity="1" fill="#315D8E" fill-rule="evenodd" fill-opacity="1"/></g></g></svg>
