<svg width="1476" height="1586" xmlns="http://www.w3.org/2000/svg" xmlns:xlink="http://www.w3.org/1999/xlink" xml:space="preserve" overflow="hidden"><g transform="translate(-2699 -499)"><g><path d="M3030 1467.78C3030 1432.56 3058.56 1404 3093.78 1404L3592.22 1404C3627.44 1404 3656 1432.56 3656 1467.78L3656 1534.22C3656 1569.44 3627.44 1598 3592.22 1598L3093.78 1598C3058.56 1598 3030 1569.44 3030 1534.22Z" fill="#315D8E" fill-rule="evenodd" fill-opacity="1"/><path d="M3008.56 1434.77C3057.75 1390.48 3133.54 1394.45 3177.83 1443.65L3261.37 1536.43C3305.66 1585.62 3301.69 1661.4 3252.5 1705.7L3108.04 1835.76C3058.85 1880.06 2983.07 1876.09 2938.77 1826.89L2855.23 1734.11C2810.94 1684.92 2814.91 1609.14 2864.1 1564.84Z" fill="#315D8E" fill-rule="evenodd" fill-opacity="1"/><path d="M3112.45 1593.09C3166.58 1555.45 3240.97 1568.81 3278.61 1622.93L3349.61 1725.01C3387.25 1779.14 3373.89 1853.53 3319.77 1891.17L3082.62 2056.11C3028.49 2093.75 2954.1 2080.39 2916.46 2026.26L2845.46 1924.18C2807.82 1870.06 2821.18 1795.67 2875.31 1758.02Z" fill="#315D8E" fill-rule="evenodd" fill-opacity="1"/><path d="M3691.22 1751C3726.44 1751 3755 1779.56 3755 1814.78L3755 1881.22C3755 1916.44 3726.44 1945 3691.22 1945L3056.78 1945C3021.56 1945 2993 1916.44 2993 1881.22L2993 1814.78C2993 1779.56 3021.56 1751 3056.78 1751Z" fill="#315D8E" fill-rule="evenodd" fill-opacity="1"/><path d="M4021.13 1392.62C4046.73 1368.45 4087.07 1369.61 4111.24 1395.2L4156.83 1443.47C4181 1469.07 4179.85 1509.41 4154.25 1533.58L3738.23 1926.46C3712.64 1950.63 3672.29 1949.47 3648.12 1923.88L3602.54 1875.6C3578.37 1850.01 3579.52 1809.67 3605.12 1785.5Z" fill="#315D8E" fill-rule="evenodd" fill-opacity="1"/><path d="M2980.75 1455.94C3024.99 1417.9 3091.69 1422.92 3129.73 1467.16L3330.09 1700.18C3368.13 1744.42 3363.1 1811.12 3318.86 1849.16L3079.01 2055.39C3034.77 2093.43 2968.07 2088.4 2930.03 2044.16L2729.68 1811.15C2691.64 1766.91 2696.67 1700.21 2740.91 1662.17Z" fill="#315D8E" fill-rule="evenodd" fill-opacity="1"/><path d="M3192.18 1714.63C3166.96 1703.17 3155.81 1673.44 3167.27 1648.22L3188.88 1600.66C3200.34 1575.44 3230.07 1564.29 3255.28 1575.75L3668.58 1763.55C3693.79 1775.01 3704.95 1804.74 3693.49 1829.96L3671.88 1877.52C3660.42 1902.73 3630.69 1913.89 3605.47 1902.43Z" fill="#315D8E" fill-rule="evenodd" fill-opacity="1"/><path d="M3141.29 587.566C3153.98 574.881 3174.54 574.881 3187.23 587.566L3187.23 587.566C3199.91 600.25 3199.91 620.816 3187.23 633.5L2925.27 895.452C2912.59 908.136 2892.02 908.136 2879.34 895.452L2879.34 895.452C2866.66 882.767 2866.66 862.202 2879.34 849.517Z" fill="#315D8E" fill-rule="evenodd" fill-opacity="1"/><path d="M2879.34 896.69C2866.66 884.006 2866.66 863.44 2879.34 850.756L2879.34 850.756C2892.02 838.071 2912.59 838.071 2925.27 850.756L3187.23 1112.71C3199.91 1125.39 3199.91 1145.96 3187.23 1158.64L3187.23 1158.64C3174.54 1171.33 3153.98 1171.33 3141.29 1158.64Z" fill="#315D8E" fill-rule="evenodd" fill-opacity="1"/><path d="M3618.62 520.274C3626.77 504.292 3646.33 497.939 3662.31 506.085L3662.31 506.085C3678.29 514.23 3684.65 533.79 3676.5 549.772L3322.52 1244.3C3314.38 1260.28 3294.82 1266.63 3278.84 1258.49 3262.85 1250.34 3256.5 1230.78 3264.65 1214.8Z" fill="#315D8E" fill-rule="evenodd" fill-opacity="1"/><path d="M4015.87 850.756C4028.56 838.072 4049.12 838.072 4061.81 850.756L4061.81 850.756C4074.49 863.441 4074.49 884.006 4061.81 896.691L3799.86 1158.64C3787.17 1171.33 3766.61 1171.33 3753.92 1158.64L3753.92 1158.64C3741.24 1145.96 3741.24 1125.39 3753.92 1112.71Z" fill="#315D8E" fill-rule="evenodd" fill-opacity="1"/><path d="M3753.92 633.178C3741.24 620.493 3741.24 599.928 3753.92 587.243L3753.92 587.243C3766.61 574.559 3787.17 574.559 3799.86 587.243L4061.81 849.195C4074.49 861.88 4074.49 882.445 4061.81 895.13L4061.81 895.129C4049.12 907.814 4028.56 907.814 4015.87 895.129Z" fill="#315D8E" fill-rule="evenodd" fill-opacity="1"/></g></g></svg>