<svg width="1476" height="1498" xmlns="http://www.w3.org/2000/svg" xmlns:xlink="http://www.w3.org/1999/xlink" xml:space="preserve" overflow="hidden"><g transform="translate(-2062 -229)"><g><path d="M2393 1112.78C2393 1077.56 2421.56 1049 2456.78 1049L2955.22 1049C2990.44 1049 3019 1077.56 3019 1112.78L3019 1179.22C3019 1214.44 2990.44 1243 2955.22 1243L2456.78 1243C2421.56 1243 2393 1214.44 2393 1179.22Z" fill="#315D8E" fill-rule="evenodd" fill-opacity="1"/><path d="M2371.48 1080.32C2420.67 1036.02 2496.45 1039.99 2540.75 1089.19L2624.29 1181.97C2668.58 1231.16 2664.61 1306.94 2615.42 1351.24L2470.96 1481.31C2421.77 1525.6 2345.98 1521.63 2301.69 1472.43L2218.15 1379.65C2173.86 1330.46 2177.83 1254.68 2227.02 1210.38Z" fill="#315D8E" fill-rule="evenodd" fill-opacity="1"/><path d="M2475.37 1238.63C2529.49 1200.99 2603.89 1214.35 2641.53 1268.47L2712.52 1370.56C2750.17 1424.68 2736.81 1499.07 2682.68 1536.71L2445.54 1701.65C2391.41 1739.29 2317.02 1725.93 2279.38 1671.8L2208.38 1569.72C2170.74 1515.6 2184.1 1441.21 2238.22 1403.56Z" fill="#315D8E" fill-rule="evenodd" fill-opacity="1"/><path d="M3054.55 1397C3089.59 1397 3118 1425.41 3118 1460.45L3118 1526.55C3118 1561.59 3089.59 1590 3054.55 1590L2419.45 1590C2384.41 1590 2356 1561.59 2356 1526.55L2356 1460.45C2356 1425.41 2384.41 1397 2419.45 1397Z" fill="#315D8E" fill-rule="evenodd" fill-opacity="1"/><path d="M3384.05 1038.17C3409.65 1013.99 3449.99 1015.15 3474.16 1040.74L3519.75 1089.02C3543.92 1114.61 3542.76 1154.95 3517.17 1179.12L3101.15 1572C3075.55 1596.17 3035.21 1595.01 3011.04 1569.42L2965.45 1521.15C2941.28 1495.55 2942.44 1455.21 2968.03 1431.04Z" fill="#315D8E" fill-rule="evenodd" fill-opacity="1"/><path d="M2343.67 1101.48C2387.91 1063.44 2454.61 1068.46 2492.65 1112.7L2693.01 1345.72C2731.04 1389.96 2726.02 1456.66 2681.78 1494.7L2441.93 1700.93C2397.69 1738.97 2330.99 1733.94 2292.95 1689.7L2092.59 1456.69C2054.56 1412.45 2059.58 1345.75 2103.82 1307.71Z" fill="#315D8E" fill-rule="evenodd" fill-opacity="1"/><path d="M2555.1 1360.17C2529.88 1348.71 2518.73 1318.98 2530.18 1293.76L2551.8 1246.2C2563.25 1220.99 2592.98 1209.83 2618.2 1221.29L3031.49 1409.09C3056.71 1420.55 3067.86 1450.28 3056.4 1475.5L3034.79 1523.06C3023.33 1548.28 2993.6 1559.43 2968.39 1547.97Z" fill="#315D8E" fill-rule="evenodd" fill-opacity="1"/><path d="M2504.21 315.607C2516.89 302.923 2537.46 302.923 2550.14 315.607L2550.14 315.607C2562.83 328.292 2562.83 348.857 2550.14 361.542L2288.19 623.493C2275.51 636.178 2254.94 636.178 2242.26 623.493L2242.26 623.493C2229.57 610.809 2229.57 590.243 2242.26 577.559Z" fill="#315D8E" fill-rule="evenodd" fill-opacity="1"/><path d="M2242.26 624.732C2229.57 612.048 2229.57 591.482 2242.26 578.798L2242.26 578.798C2254.94 566.113 2275.51 566.113 2288.19 578.798L2550.14 840.75C2562.83 853.434 2562.83 874 2550.14 886.684L2550.14 886.684C2537.46 899.368 2516.89 899.368 2504.21 886.684Z" fill="#315D8E" fill-rule="evenodd" fill-opacity="1"/><path d="M2981.54 248.316C2989.69 232.333 3009.25 225.981 3025.23 234.126L3025.23 234.126C3041.21 242.272 3047.56 261.831 3039.42 277.814L2685.44 972.339C2677.3 988.321 2657.74 994.674 2641.75 986.528 2625.77 978.382 2619.42 958.823 2627.56 942.841Z" fill="#315D8E" fill-rule="evenodd" fill-opacity="1"/><path d="M3378.79 578.798C3391.47 566.113 3412.04 566.113 3424.72 578.798L3424.72 578.798C3437.41 591.482 3437.41 612.048 3424.72 624.732L3162.77 886.684C3150.09 899.368 3129.52 899.368 3116.84 886.684L3116.84 886.684C3104.15 874 3104.15 853.434 3116.84 840.75Z" fill="#315D8E" fill-rule="evenodd" fill-opacity="1"/><path d="M3116.84 361.219C3104.15 348.535 3104.15 327.969 3116.84 315.285L3116.84 315.285C3129.52 302.6 3150.09 302.6 3162.77 315.285L3424.72 577.237C3437.41 589.922 3437.41 610.487 3424.72 623.171L3424.72 623.171C3412.04 635.855 3391.47 635.855 3378.79 623.171Z" fill="#315D8E" fill-rule="evenodd" fill-opacity="1"/></g></g></svg>