<svg width="770" height="642" xmlns="http://www.w3.org/2000/svg" xmlns:xlink="http://www.w3.org/1999/xlink" xml:space="preserve" overflow="hidden"><g transform="translate(-1613 -1278)"><g><path d="M1949.89 1705.97 1916.82 1739.05" stroke="#FFFFFF" stroke-width="34.375" stroke-linecap="round" stroke-linejoin="round" stroke-miterlimit="10" stroke-opacity="1" fill="none" fill-rule="evenodd"/><path d="M1762 1538.5C1762 1603.95 1868.11 1657 1999 1657 2129.89 1657 2236 1603.95 2236 1538.5L2236 1784.5C2236 1849.95 2129.89 1903 1999 1903 1868.11 1903 1762 1849.95 1762 1784.5Z" fill="#FFFFFF" fill-rule="evenodd" fill-opacity="1"/><path d="M1762 1538.5C1762 1473.05 1868.11 1420 1999 1420 2129.89 1420 2236 1473.05 2236 1538.5 2236 1603.95 2129.89 1657 1999 1657 1868.11 1657 1762 1603.95 1762 1538.5Z" fill="#FFFFFF" fill-rule="evenodd" fill-opacity="1"/><path d="M2236 1538.5C2236 1603.95 2129.89 1657 1999 1657 1868.11 1657 1762 1603.95 1762 1538.5 1762 1473.05 1868.11 1420 1999 1420 2129.89 1420 2236 1473.05 2236 1538.5L2236 1784.5C2236 1849.95 2129.89 1903 1999 1903 1868.11 1903 1762 1849.95 1762 1784.5L1762 1538.5" stroke="#315D8E" stroke-width="34.375" stroke-linecap="butt" stroke-linejoin="miter" stroke-miterlimit="8" stroke-opacity="1" fill="none" fill-rule="evenodd"/><path d="M1634 1519 1999 1298 2364 1519 1999 1740Z" stroke="#315D8E" stroke-width="34.375" stroke-linecap="round" stroke-linejoin="round" stroke-miterlimit="10" stroke-opacity="1" fill="#FFFFFF" fill-rule="evenodd" fill-opacity="1"/><path d="M1822 1637 1822 1779.91" stroke="#315D8E" stroke-width="34.375" stroke-linecap="round" stroke-linejoin="round" stroke-miterlimit="10" stroke-opacity="1" fill="none" fill-rule="evenodd"/><path d="M1894 1678 1894 1781.94" stroke="#315D8E" stroke-width="34.375" stroke-linecap="round" stroke-linejoin="round" stroke-miterlimit="10" stroke-opacity="1" fill="none" fill-rule="evenodd"/><path d="M1894.46 1781.94 1859.55 1747.03" stroke="#315D8E" stroke-width="34.375" stroke-linecap="round" stroke-linejoin="round" stroke-miterlimit="10" stroke-opacity="1" fill="none" fill-rule="evenodd"/><path d="M1857.35 1747.98 1824.28 1781.05" stroke="#315D8E" stroke-width="34.375" stroke-linecap="round" stroke-linejoin="round" stroke-miterlimit="10" stroke-opacity="1" fill="none" fill-rule="evenodd"/></g></g></svg>