<svg width="871" height="564" xmlns="http://www.w3.org/2000/svg" xmlns:xlink="http://www.w3.org/1999/xlink" xml:space="preserve" overflow="hidden"><g transform="translate(-1787 -540)"><g><path d="M1932 751.5C1932 813.633 2059.82 864.001 2217.5 864.001 2375.18 864.001 2503 813.633 2503 751.5L2503 976.5C2503 1038.63 2375.18 1089 2217.5 1089 2059.82 1089 1932 1038.63 1932 976.5Z" fill="#FFFFFF" fill-rule="evenodd" fill-opacity="1"/><path d="M1932 751.5C1932 689.368 2059.82 639 2217.5 639 2375.18 639 2503 689.368 2503 751.5 2503 813.633 2375.18 864.001 2217.5 864.001 2059.82 864.001 1932 813.633 1932 751.5Z" fill="#FFFFFF" fill-rule="evenodd" fill-opacity="1"/><path d="M2503 751.5C2503 813.633 2375.18 864.001 2217.5 864.001 2059.82 864.001 1932 813.633 1932 751.5 1932 689.368 2059.82 639 2217.5 639 2375.18 639 2503 689.368 2503 751.5L2503 976.5C2503 1038.63 2375.18 1089 2217.5 1089 2059.82 1089 1932 1038.63 1932 976.5L1932 751.5" stroke="#315D8E" stroke-width="27.5" stroke-linecap="butt" stroke-linejoin="miter" stroke-miterlimit="8" stroke-opacity="1" fill="none" fill-rule="evenodd"/><path d="M1802 748.5 2222.5 555 2643 748.5 2222.5 942Z" stroke="#315D8E" stroke-width="27.5" stroke-linecap="round" stroke-linejoin="round" stroke-miterlimit="10" stroke-opacity="1" fill="#FFFFFF" fill-rule="evenodd" fill-opacity="1"/><path d="M2000 843 2000 985.913" stroke="#315D8E" stroke-width="27.5" stroke-linecap="round" stroke-linejoin="round" stroke-miterlimit="10" stroke-opacity="1" fill="none" fill-rule="evenodd"/><path d="M2072 884 2072 987.937" stroke="#315D8E" stroke-width="27.5" stroke-linecap="round" stroke-linejoin="round" stroke-miterlimit="10" stroke-opacity="1" fill="none" fill-rule="evenodd"/><path d="M2072.37 988.238 2037.46 953.328" stroke="#315D8E" stroke-width="27.5" stroke-linecap="round" stroke-linejoin="round" stroke-miterlimit="10" stroke-opacity="1" fill="none" fill-rule="evenodd"/></g></g></svg>