<?xml version="1.0" ?><svg viewBox="0 0 512 512" xmlns="http://www.w3.org/2000/svg"><title/><g data-name="1" id="_1"><path stroke="#264d85" fill="#264d85" d="M291.48,449.94A15,15,0,0,1,278,441.5L207.5,296.57,62.57,226.08a15,15,0,0,1,1-27.41L435.48,49.08A15,15,0,0,1,455,68.6L305.4,440.54A15,15,0,0,1,292,449.93Zm-185.38-236,119.18,58a15,15,0,0,1,6.93,6.93l58,119.18L414,90Z"/><path stroke="#264d85" fill="#264d85" d="M218.72,300.35a15,15,0,0,1-10.6-25.61L430.47,52.39a15,15,0,1,1,21.21,21.22L229.33,296A15,15,0,0,1,218.72,300.35Z"/></g></svg>