<?xml version="1.0" encoding="UTF-8"?>
<svg id="white" xmlns="http://www.w3.org/2000/svg" viewBox="0 0 500 500">
  <defs>
    <style>
      .cls-1 {
        fill: #1fd3e4;
      }

      .cls-2 {
        fill: #fff;
      }
    </style>
  </defs>
  <circle class="cls-2" cx="250" cy="250" r="250"/>
  <path class="cls-1" d="M449.75,100.97l-172.62,3.48-56.17,346.77-73.2-151.19c-.48-.35-4.41,1.51-5.17,1.83-39.05,16.46-76.89,36.13-115.76,53.04-.52.21-1.09.34-1.64.17-.76-.24-5.42-9.16-3.75-10.45l140-79.26,47.81,100.97,47.39-278.47c7.21-.02,14.45-.19,21.66-.09,35.22.5,70.59,1.76,105.81,2.48,17.08.35,34.21-.09,51.22.98,2.81.18,6.54-1.01,8.32,1.44l6.09,8.3Z"/>
</svg>