<?xml version="1.0" encoding="UTF-8"?>
<svg id="Layer_1" data-name="Layer 1" xmlns="http://www.w3.org/2000/svg" viewBox="0 0 500 500">
  <defs>
    <style>
      .cls-1 {
        fill: #1ed3e4;
      }
    </style>
  </defs>
  <path class="cls-1" d="M449.35,99.14c-.63-.06-1.28-.06-1.97-.05-35.06.7-70.12,1.37-105.18,2.04-20.25.39-40.49.85-60.74,1.1-3.47.04-5.06.65-5.69,4.63-7.62,48.1-15.5,96.15-23.3,144.22-8.43,51.97-16.85,103.94-25.27,155.91-2.47,15.26-4.93,30.52-7.46,46.13-1.9-1.2-2.22-3.04-2.94-4.54-23.1-47.85-46.21-95.69-69.16-143.61-1.73-3.6-3.03-4.26-6.84-2.5-38.23,17.65-76.54,35.12-114.92,52.45-.97.44-1.71.86-2.26,1.3,39.93,84.96,126.27,143.79,226.37,143.79,138.07,0,250-111.93,250-250,0-56.67-18.87-108.93-50.65-150.86Z"/>
  <path class="cls-1" d="M441.5,89.3C395.64,34.71,326.88,0,250,0,111.93,0,0,111.93,0,250c0,33.81,6.73,66.04,18.89,95.46.64-.2,1.38-.56,2.25-1.06,44.38-25.45,88.88-50.71,133.24-76.21,4.02-2.31,5.45-1.79,7.4,2.38,14.43,31.01,29.13,61.9,43.78,92.82.54,1.14.75,2.57,2.54,3.38,1.95-11.27,3.9-22.41,5.79-33.56,9.71-57.08,19.4-114.16,29.11-171.24,4.11-24.16,8.31-48.31,12.32-72.48.48-2.88,1.5-3.86,4.42-3.79,28.79.66,57.59,1.21,86.38,1.79,30.61.61,61.21,1.21,91.82,1.81,1.16.02,2.34.02,3.56,0Z"/>
</svg>