<?xml version="1.0" encoding="UTF-8"?>
<svg id="black_text" data-name="black + text" xmlns="http://www.w3.org/2000/svg" viewBox="0 0 1515.26 500">
  <g>
    <path d="M583.89,199.95v116.31h-18.62V49.31h63.54c33.11,0,57.57,6.12,73.4,18.35,15.82,12.23,23.74,30.65,23.74,55.23,0,17.89-4.72,32.99-14.15,45.28-9.43,12.3-23.77,21.12-43,26.48l72.49,121.6h-22.28l-68.84-116.31h-66.28ZM583.89,183.88h50.94c22.52,0,39.99-5.02,52.4-15.06,12.42-10.04,18.62-24.86,18.62-44.46s-6.09-35.12-18.26-44.37c-12.17-9.25-32.02-13.88-59.52-13.88h-44.19v117.77Z"/>
    <path d="M1011.87,182.42c0,42.36-10.59,75.87-31.77,100.51-21.18,24.65-50.39,36.97-87.64,36.97s-66.28-12.32-87.46-36.97c-21.18-24.65-31.77-58.27-31.77-100.88s10.68-75.92,32.04-100.33c21.36-24.4,50.54-36.61,87.55-36.61s66.4,12.26,87.46,36.79c21.06,24.53,31.59,58.03,31.59,100.51ZM793.49,182.42c0,38.22,8.52,67.77,25.56,88.65,17.04,20.88,41.51,31.31,73.4,31.31s56.69-10.34,73.67-31.04c16.98-20.69,25.47-50.33,25.47-88.92s-8.49-67.95-25.47-88.46c-16.98-20.51-41.42-30.77-73.31-30.77s-56.27,10.35-73.49,31.04c-17.23,20.69-25.84,50.09-25.84,88.19Z"/>
    <path d="M1297.62,182.42c0,42.36-10.59,75.87-31.77,100.51-21.18,24.65-50.39,36.97-87.64,36.97s-66.28-12.32-87.46-36.97c-21.18-24.65-31.77-58.27-31.77-100.88s10.68-75.92,32.04-100.33c21.36-24.4,50.54-36.61,87.55-36.61s66.4,12.26,87.46,36.79c21.06,24.53,31.59,58.03,31.59,100.51ZM1079.24,182.42c0,38.22,8.52,67.77,25.56,88.65,17.04,20.88,41.51,31.31,73.4,31.31s56.69-10.34,73.67-31.04c16.98-20.69,25.47-50.33,25.47-88.92s-8.49-67.95-25.47-88.46c-16.98-20.51-41.42-30.77-73.31-30.77s-56.27,10.35-73.49,31.04c-17.23,20.69-25.84,50.09-25.84,88.19Z"/>
    <path d="M1428.53,316.26h-18.81V66.84h-86.73v-17.53h192.26v17.53h-86.73v249.41Z"/>
    <path d="M611.58,403.27c0,10.24-2.68,17.98-8.05,23.22-5.37,5.24-13.26,7.87-23.66,7.87h-14.61v-61.01h16.48c9.74,0,17.14,2.55,22.22,7.64,5.08,5.09,7.62,12.52,7.62,22.28ZM606.95,403.43c0-8.73-2.22-15.31-6.66-19.72-4.44-4.41-10.95-6.61-19.55-6.61h-11.23v53.5h10.1c18.22,0,27.33-9.06,27.33-27.17Z"/>
    <path d="M652.1,434.36l-1.04-7.18h-.33c-2.28,2.92-4.63,4.99-7.03,6.2-2.41,1.21-5.25,1.82-8.53,1.82-4.45,0-7.91-1.14-10.39-3.42-2.48-2.28-3.71-5.44-3.71-9.47,0-4.42,1.84-7.86,5.53-10.31,3.69-2.45,9.02-3.74,16-3.88l8.64-.25v-3c0-4.31-.88-7.57-2.63-9.76-1.75-2.2-4.58-3.3-8.47-3.3-4.2,0-8.55,1.17-13.06,3.51l-1.54-3.59c4.98-2.34,9.9-3.51,14.77-3.51s8.7,1.29,11.16,3.88,3.69,6.62,3.69,12.1v30.17h-3.05ZM635.41,431.43c4.84,0,8.66-1.38,11.45-4.15,2.8-2.77,4.19-6.61,4.19-11.54v-4.46l-7.93.33c-6.37.31-10.91,1.3-13.62,2.98-2.71,1.68-4.07,4.31-4.07,7.87,0,2.84.87,5.04,2.61,6.61,1.74,1.57,4.19,2.36,7.37,2.36Z"/>
    <path d="M681.81,431.52c2.61,0,4.9-.22,6.84-.67v3.34c-2,.67-4.31,1-6.93,1-4.01,0-6.96-1.07-8.87-3.21-1.91-2.14-2.86-5.51-2.86-10.1v-29.29h-6.72v-2.42l6.72-1.88,2.09-10.27h2.13v10.97h13.31v3.59h-13.31v28.71c0,3.48.61,6.05,1.84,7.72,1.22,1.67,3.14,2.5,5.76,2.5Z"/>
    <path d="M726,434.36l-1.04-7.18h-.33c-2.28,2.92-4.63,4.99-7.03,6.2-2.41,1.21-5.25,1.82-8.53,1.82-4.45,0-7.91-1.14-10.39-3.42-2.48-2.28-3.71-5.44-3.71-9.47,0-4.42,1.84-7.86,5.53-10.31,3.69-2.45,9.02-3.74,16-3.88l8.64-.25v-3c0-4.31-.88-7.57-2.63-9.76-1.75-2.2-4.58-3.3-8.47-3.3-4.2,0-8.55,1.17-13.06,3.51l-1.54-3.59c4.98-2.34,9.9-3.51,14.77-3.51s8.7,1.29,11.16,3.88,3.69,6.62,3.69,12.1v30.17h-3.05ZM709.31,431.43c4.84,0,8.66-1.38,11.45-4.15,2.8-2.77,4.19-6.61,4.19-11.54v-4.46l-7.93.33c-6.37.31-10.91,1.3-13.62,2.98-2.71,1.68-4.07,4.31-4.07,7.87,0,2.84.87,5.04,2.61,6.61,1.74,1.57,4.19,2.36,7.37,2.36Z"/>
    <path d="M796.36,412.82h-24.79l-8.51,21.53h-4.72l24.54-61.26h2.71l24.04,61.26h-4.8l-8.47-21.53ZM773.11,408.98h21.82l-8.3-21.99c-.7-1.72-1.53-4.12-2.5-7.18-.75,2.67-1.57,5.09-2.46,7.26l-8.55,21.91Z"/>
    <path d="M848.85,434.36v-29.42c0-4.56-.96-7.88-2.88-9.95-1.92-2.07-4.9-3.11-8.93-3.11-5.42,0-9.4,1.37-11.91,4.11-2.52,2.74-3.78,7.19-3.78,13.33v25.04h-4.13v-45.36h3.51l.79,6.22h.25c2.95-4.73,8.19-7.09,15.73-7.09,10.29,0,15.44,5.52,15.44,16.57v29.67h-4.09Z"/>
    <path d="M895.17,434.36l-1.04-7.18h-.33c-2.28,2.92-4.63,4.99-7.03,6.2-2.41,1.21-5.25,1.82-8.53,1.82-4.45,0-7.92-1.14-10.39-3.42-2.48-2.28-3.71-5.44-3.71-9.47,0-4.42,1.84-7.86,5.53-10.31,3.69-2.45,9.02-3.74,16-3.88l8.64-.25v-3c0-4.31-.88-7.57-2.63-9.76-1.75-2.2-4.58-3.3-8.47-3.3-4.2,0-8.55,1.17-13.06,3.51l-1.54-3.59c4.98-2.34,9.9-3.51,14.77-3.51s8.7,1.29,11.16,3.88c2.46,2.59,3.69,6.62,3.69,12.1v30.17h-3.05ZM878.48,431.43c4.84,0,8.66-1.38,11.45-4.15,2.8-2.77,4.19-6.61,4.19-11.54v-4.46l-7.93.33c-6.37.31-10.91,1.3-13.62,2.98-2.71,1.68-4.07,4.31-4.07,7.87,0,2.84.87,5.04,2.61,6.61,1.74,1.57,4.19,2.36,7.36,2.36Z"/>
    <path d="M917.04,434.36h-4.13v-64.93h4.13v64.93Z"/>
    <path d="M924.63,389h4.26l9.6,25.45c2.92,7.82,4.77,13.09,5.55,15.82h.25c1.17-3.59,3.07-8.94,5.72-16.07l9.6-25.2h4.26l-20.32,52.7c-1.64,4.28-3.02,7.18-4.13,8.68-1.11,1.5-2.41,2.63-3.9,3.38s-3.29,1.13-5.4,1.13c-1.59,0-3.35-.29-5.3-.88v-3.59c1.61.44,3.35.67,5.22.67,1.42,0,2.67-.33,3.76-1s2.07-1.7,2.94-3.11c.88-1.4,1.89-3.63,3.05-6.68,1.15-3.05,1.9-5.03,2.23-5.95l-17.36-45.36Z"/>
    <path d="M999.58,422.55c0,4.06-1.54,7.18-4.63,9.37s-7.47,3.28-13.14,3.28c-6.06,0-10.88-.93-14.44-2.8v-4.46c4.56,2.28,9.37,3.42,14.44,3.42,4.48,0,7.88-.74,10.2-2.23,2.32-1.49,3.48-3.47,3.48-5.95,0-2.28-.93-4.2-2.77-5.76-1.85-1.56-4.89-3.09-9.12-4.59-4.54-1.64-7.72-3.05-9.56-4.24-1.84-1.18-3.22-2.52-4.15-4.01-.93-1.49-1.4-3.3-1.4-5.45,0-3.39,1.42-6.08,4.28-8.05,2.85-1.97,6.84-2.96,11.95-2.96s9.54.92,13.94,2.75l-1.54,3.76c-4.45-1.84-8.58-2.75-12.39-2.75s-6.63.61-8.8,1.84c-2.17,1.22-3.25,2.92-3.25,5.09,0,2.37.84,4.26,2.53,5.68,1.68,1.42,4.97,3,9.87,4.76,4.09,1.47,7.07,2.8,8.93,3.99,1.86,1.18,3.26,2.52,4.19,4.03s1.4,3.27,1.4,5.3Z"/>
    <path d="M1010.68,376.39c0-2.67.88-4.01,2.63-4.01.86,0,1.54.35,2.02,1.04.49.7.73,1.68.73,2.96s-.24,2.24-.73,2.96c-.49.72-1.16,1.08-2.02,1.08-1.75,0-2.63-1.35-2.63-4.05ZM1015.39,434.36h-4.13v-45.36h4.13v45.36Z"/>
    <path d="M1058.71,422.55c0,4.06-1.54,7.18-4.63,9.37-3.09,2.18-7.47,3.28-13.14,3.28-6.06,0-10.88-.93-14.44-2.8v-4.46c4.56,2.28,9.37,3.42,14.44,3.42,4.48,0,7.88-.74,10.2-2.23,2.32-1.49,3.48-3.47,3.48-5.95,0-2.28-.93-4.2-2.77-5.76-1.85-1.56-4.89-3.09-9.12-4.59-4.54-1.64-7.72-3.05-9.56-4.24-1.84-1.18-3.22-2.52-4.15-4.01-.93-1.49-1.4-3.3-1.4-5.45,0-3.39,1.42-6.08,4.28-8.05,2.85-1.97,6.84-2.96,11.95-2.96s9.54.92,13.94,2.75l-1.54,3.76c-4.45-1.84-8.58-2.75-12.39-2.75s-6.63.61-8.8,1.84c-2.17,1.22-3.25,2.92-3.25,5.09,0,2.37.84,4.26,2.53,5.68,1.68,1.42,4.97,3,9.87,4.76,4.09,1.47,7.07,2.8,8.93,3.99,1.86,1.18,3.26,2.52,4.19,4.03s1.4,3.27,1.4,5.3Z"/>
    <path d="M1097.89,434.36h-4.26v-61.01h33.42v3.92h-29.17v25.87h27.54v3.96h-27.54v27.25Z"/>
    <path d="M1153.35,388.12c1.92,0,3.98.2,6.18.58l-.79,3.96c-1.89-.47-3.85-.71-5.88-.71-3.87,0-7.04,1.64-9.51,4.92-2.48,3.28-3.71,7.43-3.71,12.44v25.04h-4.13v-45.36h3.51l.42,8.18h.29c1.86-3.34,3.85-5.68,5.97-7.03,2.11-1.35,4.67-2.02,7.68-2.02Z"/>
    <path d="M1196.29,434.36l-1.04-7.18h-.33c-2.28,2.92-4.63,4.99-7.03,6.2-2.41,1.21-5.25,1.82-8.53,1.82-4.45,0-7.92-1.14-10.39-3.42-2.48-2.28-3.71-5.44-3.71-9.47,0-4.42,1.84-7.86,5.53-10.31,3.69-2.45,9.02-3.74,16-3.88l8.64-.25v-3c0-4.31-.88-7.57-2.63-9.76-1.75-2.2-4.58-3.3-8.47-3.3-4.2,0-8.55,1.17-13.06,3.51l-1.54-3.59c4.98-2.34,9.9-3.51,14.77-3.51s8.7,1.29,11.16,3.88c2.46,2.59,3.69,6.62,3.69,12.1v30.17h-3.05ZM1179.59,431.43c4.84,0,8.66-1.38,11.45-4.15,2.8-2.77,4.19-6.61,4.19-11.54v-4.46l-7.93.33c-6.37.31-10.91,1.3-13.62,2.98-2.71,1.68-4.07,4.31-4.07,7.87,0,2.84.87,5.04,2.61,6.61,1.74,1.57,4.19,2.36,7.36,2.36Z"/>
    <path d="M1270.69,434.36v-29.75c0-4.42-.86-7.65-2.59-9.68-1.73-2.03-4.37-3.05-7.93-3.05-4.65,0-8.08,1.28-10.31,3.84-2.23,2.56-3.34,6.58-3.34,12.06v26.58h-4.21v-31c0-7.65-3.51-11.48-10.52-11.48-4.76,0-8.22,1.38-10.39,4.15s-3.25,7.2-3.25,13.29v25.04h-4.13v-45.36h3.42l.88,6.22h.25c1.25-2.25,3.03-4,5.34-5.24,2.31-1.24,4.85-1.86,7.64-1.86,7.15,0,11.74,2.68,13.77,8.05h.17c1.47-2.59,3.46-4.58,5.95-5.97,2.49-1.39,5.32-2.09,8.49-2.09,4.95,0,8.67,1.32,11.14,3.96,2.48,2.64,3.71,6.84,3.71,12.6v29.67h-4.09Z"/>
    <path d="M1307.79,435.19c-6.59,0-11.73-2.03-15.42-6.09-3.69-4.06-5.53-9.75-5.53-17.07s1.78-13.03,5.34-17.38c3.56-4.35,8.36-6.53,14.4-6.53,5.34,0,9.56,1.86,12.64,5.59,3.09,3.73,4.63,8.79,4.63,15.19v3.34h-32.67c.05,6.23,1.51,10.99,4.36,14.27,2.85,3.28,6.93,4.92,12.25,4.92,2.59,0,4.86-.18,6.82-.54,1.96-.36,4.44-1.14,7.45-2.34v3.76c-2.56,1.11-4.92,1.87-7.09,2.27-2.17.4-4.56.6-7.18.6ZM1306.58,391.79c-4.37,0-7.87,1.44-10.52,4.32-2.64,2.88-4.19,7.03-4.63,12.46h28.04c0-5.26-1.14-9.37-3.42-12.33-2.28-2.96-5.44-4.44-9.47-4.44Z"/>
    <path d="M1372.63,434.36l-9.93-30.34c-.64-2.06-1.46-5.08-2.46-9.06h-.25l-.88,3.09-1.88,6.05-10.1,30.25h-4.09l-12.98-45.36h4.42l7.26,26.29c1.7,6.51,2.81,11.3,3.34,14.35h.25c1.64-6.51,2.84-10.84,3.59-12.98l9.35-27.67h3.76l8.89,27.58c2,6.54,3.23,10.86,3.67,12.98h.25c.22-1.81,1.34-6.65,3.34-14.52l6.93-26.04h4.17l-12.31,45.36h-4.34Z"/>
    <path d="M1435.69,411.61c0,7.4-1.79,13.18-5.38,17.34-3.59,4.16-8.54,6.24-14.86,6.24-3.98,0-7.48-.96-10.52-2.88-3.03-1.92-5.36-4.67-6.97-8.26-1.61-3.59-2.42-7.73-2.42-12.44,0-7.4,1.79-13.16,5.38-17.3,3.59-4.13,8.51-6.2,14.77-6.2s11.12,2.09,14.67,6.28c3.55,4.19,5.32,9.93,5.32,17.21ZM1399.88,411.61c0,6.23,1.37,11.09,4.11,14.58,2.74,3.49,6.61,5.24,11.62,5.24s8.88-1.75,11.62-5.24c2.74-3.49,4.11-8.35,4.11-14.58s-1.38-11.11-4.15-14.56c-2.77-3.45-6.66-5.17-11.66-5.17s-8.87,1.72-11.58,5.15c-2.71,3.44-4.07,8.3-4.07,14.58Z"/>
    <path d="M1466.11,388.12c1.92,0,3.98.2,6.18.58l-.79,3.96c-1.89-.47-3.85-.71-5.88-.71-3.87,0-7.04,1.64-9.51,4.92-2.48,3.28-3.71,7.43-3.71,12.44v25.04h-4.13v-45.36h3.51l.42,8.18h.29c1.86-3.34,3.85-5.68,5.97-7.03,2.11-1.35,4.67-2.02,7.68-2.02Z"/>
    <path d="M1485.55,414.45l23.16-25.45h5.01l-17.86,19.36,19.4,26h-4.97l-17.23-22.91-7.43,6.76v16.15h-4.13v-64.93h4.13v32.55l-.29,12.48h.21Z"/>
  </g>
  <g>
    <path d="M449.35,99.14c-.63-.06-1.28-.06-1.97-.05-35.06.7-70.12,1.37-105.18,2.04-20.25.39-40.49.85-60.74,1.1-3.47.04-5.06.65-5.69,4.63-7.62,48.1-15.5,96.15-23.3,144.22-8.43,51.97-16.85,103.94-25.27,155.91-2.47,15.26-4.93,30.52-7.46,46.13-1.9-1.2-2.22-3.04-2.94-4.54-23.1-47.85-46.21-95.69-69.16-143.61-1.73-3.6-3.03-4.26-6.84-2.5-38.23,17.65-76.54,35.12-114.92,52.45-.97.44-1.71.86-2.26,1.3,39.93,84.96,126.27,143.79,226.37,143.79,138.07,0,250-111.93,250-250,0-56.67-18.87-108.93-50.65-150.86Z"/>
    <path d="M441.5,89.3C395.64,34.71,326.88,0,250,0,111.93,0,0,111.93,0,250c0,33.81,6.73,66.04,18.89,95.46.64-.2,1.38-.56,2.25-1.06,44.38-25.45,88.88-50.71,133.24-76.21,4.02-2.31,5.45-1.79,7.4,2.38,14.43,31.01,29.13,61.9,43.78,92.82.54,1.14.75,2.57,2.54,3.38,1.95-11.27,3.9-22.41,5.79-33.56,9.71-57.08,19.4-114.16,29.11-171.24,4.11-24.16,8.31-48.31,12.32-72.48.48-2.88,1.5-3.86,4.42-3.79,28.79.66,57.59,1.21,86.38,1.79,30.61.61,61.21,1.21,91.82,1.81,1.16.02,2.34.02,3.56,0Z"/>
  </g>
</svg>